/vscmnt/brussel_pixiu_data/_data_brussel/112/vsc11236/PredSimResults/SUBJ04mtu3D/weighted-expIG/worker_04.mot
version=1
nRows=4
nColumns=50
inDegrees=yes
endheader
                time	         pelvis_tilt	         pelvis_list	     pelvis_rotation	           pelvis_tx	           pelvis_ty	           pelvis_tz	       hip_flexion_r	     hip_adduction_r	      hip_rotation_r	        knee_angle_r	       ankle_angle_r	         mtp_angle_r	       hip_flexion_l	     hip_adduction_l	      hip_rotation_l	        knee_angle_l	       ankle_angle_l	         mtp_angle_l	    lumbar_extension	      lumbar_bending	     lumbar_rotation	 ercspn_r/activation	 intobl_r/activation	 extobl_r/activation	    abd_r/activation	    add_r/activation	hamstrings_r/activation	bifemsh_r/activation	glut_max_r/activation	iliopsoas_r/activation	rect_fem_r/activation	  vasti_r/activation	gastroc_r/activation	 soleus_r/activation	tib_ant_r/activation	 ercspn_l/activation	 intobl_l/activation	 extobl_l/activation	    abd_l/activation	    add_l/activation	hamstrings_l/activation	bifemsh_l/activation	glut_max_l/activation	iliopsoas_l/activation	rect_fem_l/activation	  vasti_l/activation	gastroc_l/activation	 soleus_l/activation	tib_ant_l/activation	
          0.00000000	         -6.17066918	         -4.77253391	         12.28655337	          0.00000000	          0.88188605	         -0.02158177	         25.49601249	          0.15221074	         -5.15818930	          2.36407256	          5.56090534	          0.21638681	         -7.71485033	         -4.09641891	         15.15050087	         -8.63427090	         12.28885422	         23.86786817	         -2.37758250	          1.78124435	         -1.85274429	          0.09656624	          0.16789195	          0.02135328	          0.02152932	          0.10789574	          0.02944272	          0.01000000	          0.00999999	          0.05553719	          0.01187016	          0.01856036	          0.00999999	          0.00999999	          0.27218193	          0.03867470	          0.00999999	          0.00999999	          0.08433547	          0.00999999	          0.01972299	          0.14332665	          0.07857595	          0.33867894	          0.00999999	          0.00999999	          0.31153474	          0.30020436	          0.01510280	
          0.01373612	         -6.28957345	         -4.65617124	         12.18997332	          0.01520737	          0.87994714	         -0.02052025	         25.16537415	          0.42349193	         -4.04558048	          1.69404651	          5.17205597	          0.22191632	         -7.93261804	         -3.96446723	         14.37499547	         -9.97986907	         12.06781582	         25.58785768	         -2.07877602	          2.08696831	         -2.09803285	          0.07857716	          0.15768257	          0.01737543	          0.01751868	          0.14474366	          0.02761151	          0.01000000	          0.01366109	          0.04519131	          0.01000000	          0.01510280	          0.01811037	          0.01763834	          0.27425350	          0.06581518	          0.00999999	          0.00999999	          0.06862483	          0.02546452	          0.01841735	          0.11662669	          0.06393823	          0.30993390	          0.00999999	          0.00999999	          0.28769113	          0.29400402	          0.01228934	
          0.02747223	         -6.38985558	         -4.53239066	         12.02451231	          0.03081418	          0.87815674	         -0.01937385	         24.70293434	          0.69260300	         -2.95702405	          0.99255887	          4.74797618	          0.21410114	         -8.08781898	         -3.80801810	         13.55506496	        -11.53015890	         11.72021932	         27.35688018	         -1.76159094	          2.40854991	         -2.33206139	          0.06721045	          0.16639383	          0.01413861	          0.02433165	          0.11777973	          0.03244369	          0.05494647	          0.02903639	          0.03677273	          0.00999999	          0.01228934	          0.01473664	          0.01435254	          0.31391075	          0.08444639	          0.00999999	          0.00999999	          0.05584088	          0.04469430	          0.01554408	          0.09490060	          0.05202734	          0.27677854	          0.00999999	          0.00999999	          0.26164298	          0.28042704	          0.00999999	
          0.04120835	         -6.47283341	         -4.40808106	         11.78107655	          0.04661068	          0.87672664	         -0.01812321	         24.11608532	          0.98030458	         -1.94274137	          0.51002934	          4.18696149	          0.19956471	         -8.11318194	         -3.62347121	         12.68877431	        -13.36273653	         11.18298999	         29.16948333	         -1.44698699	          2.75375694	         -2.55167293	          0.07049439	          0.13776843	          0.01150476	          0.05407238	          0.09583884	          0.03647217	          0.04471063	          0.04356685	          0.02992243	          0.00999999	          0.00999999	          0.01199139	          0.01167884	          0.34193712	          0.10655642	          0.00999999	          0.00999999	          0.04543842	          0.04242594	          0.01654134	          0.07722180	          0.04233530	          0.24109238	          0.00999999	          0.00999999	          0.21840988	          0.25984899	          0.00999999	
